<?xml version="1.0" standalone="no"?>
<!DOCTYPE svg PUBLIC "-//W3C//DTD SVG 20010904//EN"
 "http://www.w3.org/TR/2001/REC-SVG-20010904/DTD/svg10.dtd">
<svg version="1.0" xmlns="http://www.w3.org/2000/svg"
 width="800.000000pt" height="800.000000pt" viewBox="0 0 800.000000 800.000000"
 preserveAspectRatio="xMidYMid meet">

<g transform="translate(0.000000,800.000000) scale(0.100000,-0.100000)"
fill="#000000" stroke="none">
<path d="M3910 7408 c-34 -18 -128 -86 -208 -151 -81 -65 -237 -188 -347 -274
-110 -86 -247 -195 -304 -242 -58 -47 -182 -147 -276 -221 -95 -74 -217 -172
-271 -217 -137 -113 -724 -581 -864 -688 -138 -106 -339 -274 -396 -331 -93
-92 -109 -221 -56 -439 41 -166 269 -976 400 -1425 68 -232 159 -562 207 -755
46 -180 200 -740 219 -793 31 -87 77 -126 485 -402 151 -102 380 -259 510
-349 388 -270 831 -561 909 -599 92 -44 135 -41 225 14 79 48 549 362 684 457
56 40 155 107 220 149 65 42 201 134 303 204 102 70 271 185 376 255 204 137
252 180 277 250 16 43 81 285 138 509 16 63 43 167 60 230 17 63 60 223 94
355 71 271 137 512 197 725 22 80 57 208 78 285 20 77 85 313 143 525 165 600
170 627 123 725 -36 77 -100 131 -871 741 -189 150 -276 220 -714 572 -217
174 -428 344 -470 376 -42 33 -139 110 -216 171 -228 181 -437 337 -480 356
-59 27 -103 24 -175 -13z m219 -526 c36 -25 140 -104 231 -176 91 -71 282
-222 425 -335 143 -112 413 -326 600 -476 187 -149 441 -348 564 -441 217
-163 463 -362 488 -394 23 -28 14 -120 -28 -284 -23 -88 -90 -341 -149 -561
-198 -734 -291 -1079 -331 -1230 -40 -148 -172 -621 -230 -824 -16 -57 -37
-118 -47 -136 -22 -43 -101 -100 -532 -388 -195 -131 -400 -268 -455 -306
-207 -142 -516 -343 -574 -373 -76 -39 -101 -35 -212 36 -230 145 -869 569
-1017 674 -92 65 -232 164 -312 219 -80 56 -154 111 -165 122 -20 23 -74 206
-206 696 -44 165 -120 444 -169 620 -49 176 -105 383 -125 460 -50 193 -115
427 -195 710 -120 421 -140 503 -129 533 15 40 42 65 174 165 131 99 502 389
685 534 392 312 639 507 815 643 110 85 284 222 386 306 209 169 301 237 349
258 43 17 71 8 159 -52z"/>
<path d="M3785 6286 c-11 -14 -303 -251 -589 -476 -95 -74 -246 -193 -336
-265 -91 -71 -277 -221 -415 -334 -137 -112 -262 -213 -277 -224 -16 -12 -28
-24 -28 -28 0 -4 17 -14 38 -22 20 -8 105 -48 187 -87 83 -40 237 -115 344
-166 107 -52 203 -94 215 -94 12 0 54 30 97 67 41 38 149 131 240 208 354 301
527 457 533 478 9 38 19 957 9 957 -4 0 -13 -6 -18 -14z"/>
<path d="M4205 6288 c-3 -8 -4 -229 -3 -492 l3 -477 41 -37 c22 -20 168 -138
324 -262 156 -124 334 -267 395 -318 60 -51 120 -95 133 -99 18 -4 120 42 400
180 207 102 378 189 380 195 1 5 -63 60 -144 122 -80 61 -217 169 -304 238
-87 70 -247 197 -355 282 -109 85 -290 229 -404 319 -113 90 -242 191 -286
224 -44 33 -101 77 -127 99 -35 29 -49 36 -53 26z"/>
<path d="M3979 4967 c-14 -12 -83 -71 -153 -132 -71 -60 -172 -146 -226 -190
-211 -172 -399 -337 -404 -353 -6 -17 47 -216 172 -657 33 -115 86 -307 117
-425 32 -118 64 -227 71 -242 16 -31 61 -74 189 -180 50 -42 124 -105 165
-141 111 -98 110 -97 167 -51 85 69 371 355 382 382 6 15 27 83 46 152 19 69
51 179 70 245 20 66 54 188 76 270 42 156 88 315 144 495 57 185 60 169 -41
247 -148 116 -381 302 -560 449 -94 78 -175 143 -180 147 -5 3 -21 -5 -35 -16z"/>
<path d="M5620 4418 c-337 -172 -384 -201 -405 -243 -8 -17 -30 -92 -50 -166
-20 -74 -74 -264 -120 -424 -46 -159 -105 -369 -130 -465 -25 -96 -53 -196
-62 -221 l-16 -46 49 -45 c193 -179 443 -383 455 -371 4 4 30 87 58 183 121
424 215 763 252 908 64 248 266 1003 275 1027 4 8 2 15 -2 15 -5 0 -142 -68
-304 -152z"/>
<path d="M2100 4516 c0 -8 5 -27 11 -43 9 -25 61 -213 270 -988 69 -257 195
-732 246 -925 19 -74 37 -137 39 -139 5 -6 224 190 373 335 l135 131 -62 219
c-34 121 -84 298 -112 394 -28 96 -81 290 -116 430 -39 150 -73 262 -82 272
-9 9 -62 37 -117 61 -159 71 -393 181 -482 226 -90 45 -103 48 -103 27z"/>
<path d="M3327 2493 c-339 -318 -397 -375 -397 -387 1 -6 32 -30 70 -54 39
-24 236 -158 440 -298 203 -140 371 -254 373 -254 2 0 2 161 0 357 l-4 358
-87 81 c-173 161 -287 254 -310 254 -15 0 -46 -22 -85 -57z"/>
<path d="M4528 2478 c-98 -82 -208 -176 -270 -234 l-58 -54 0 -332 c0 -183 4
-339 9 -347 7 -11 41 9 157 91 231 163 245 172 489 336 127 85 234 158 238
162 5 4 -44 52 -109 106 -274 232 -385 324 -389 324 -2 0 -32 -23 -67 -52z"/>
</g>
</svg>
